<?xml version="1.0" standalone="no"?>
<!DOCTYPE svg PUBLIC "-//W3C//DTD SVG 20010904//EN"
 "http://www.w3.org/TR/2001/REC-SVG-20010904/DTD/svg10.dtd">
<svg version="1.0" xmlns="http://www.w3.org/2000/svg"
 width="512.000000pt" height="512.000000pt" viewBox="0 0 512.000000 512.000000"
 preserveAspectRatio="xMidYMid meet">
<metadata>
Created by potrace 1.14, written by Peter Selinger 2001-2017
</metadata>
<g transform="translate(0.000000,512.000000) scale(0.100000,-0.100000)"
fill="#000000" stroke="none">
<path d="M2378 5115 c-1 -1 -39 -5 -82 -9 -44 -4 -82 -9 -85 -11 -4 -2 -34 -7
-66 -10 -117 -14 -472 -111 -499 -136 -6 -5 -16 -9 -23 -9 -8 0 -49 -16 -91
-35 -352 -161 -618 -354 -877 -637 -33 -36 -71 -80 -85 -98 -14 -18 -29 -38
-35 -44 -82 -92 -246 -369 -323 -546 -61 -142 -131 -351 -146 -443 -3 -15 -7
-35 -10 -45 -3 -9 -7 -34 -11 -56 -3 -21 -7 -41 -9 -45 -4 -6 -12 -73 -26
-201 -8 -80 -5 -458 4 -499 3 -14 8 -47 11 -75 19 -169 88 -430 164 -618 178
-446 512 -862 916 -1143 59 -41 300 -185 310 -185 2 0 41 -17 87 -39 200 -92
450 -168 648 -197 189 -27 243 -31 445 -28 121 2 231 5 245 8 14 2 45 7 70 10
25 4 92 16 150 27 58 12 115 23 128 25 38 7 320 103 370 125 481 216 859 531
1135 945 193 291 337 655 393 994 38 236 40 580 5 805 -117 740 -543 1387
-1175 1784 -100 63 -321 179 -353 186 -10 2 -43 14 -73 28 -46 20 -167 60
-295 97 -25 7 -104 24 -210 44 -11 2 -49 7 -85 11 -36 4 -69 9 -73 12 -9 5
-443 13 -449 8z"/>
</g>
</svg>
