<?xml version="1.0" standalone="no"?>
<!DOCTYPE svg PUBLIC "-//W3C//DTD SVG 20010904//EN"
 "http://www.w3.org/TR/2001/REC-SVG-20010904/DTD/svg10.dtd">
<svg version="1.0" xmlns="http://www.w3.org/2000/svg"
 width="512.000000pt" height="512.000000pt" viewBox="0 0 512.000000 512.000000"
 preserveAspectRatio="xMidYMid meet">
<metadata>
Created by potrace 1.14, written by Peter Selinger 2001-2017
</metadata>
<g transform="translate(0.000000,512.000000) scale(0.100000,-0.100000)"
fill="#000000" stroke="none">
<path d="M2487 4600 c-101 -26 -197 -105 -240 -198 -17 -36 -22 -66 -22 -132
0 -76 3 -92 33 -152 58 -118 154 -181 287 -186 63 -3 92 1 137 18 75 28 149
98 185 175 24 51 28 72 28 145 -1 103 -22 156 -89 228 -78 83 -216 127 -319
102z"/>
<path d="M1925 4231 c-475 -181 -862 -570 -1039 -1043 -20 -53 -36 -101 -36
-106 0 -5 28 -12 63 -15 34 -4 70 -8 81 -9 15 -2 23 9 37 52 32 93 136 290
207 390 37 52 117 144 177 205 166 166 343 283 554 366 76 30 95 42 93 56 -1
10 -5 46 -9 81 -3 35 -10 62 -17 62 -6 0 -56 -18 -111 -39z"/>
<path d="M3067 4208 c-4 -35 -8 -71 -9 -81 -2 -14 17 -26 93 -56 416 -164 756
-503 920 -919 30 -76 42 -96 56 -94 10 1 46 5 81 9 34 3 62 10 62 15 0 5 -16
53 -36 106 -151 409 -482 775 -879 975 -68 33 -255 107 -273 107 -5 0 -12 -28
-15 -62z"/>
<path d="M2379 3125 c-177 -58 -314 -191 -382 -371 -19 -50 -22 -79 -22 -194
0 -115 3 -144 22 -194 69 -181 210 -316 390 -372 73 -23 95 -26 195 -22 83 3
129 10 172 26 172 63 303 194 369 368 19 50 22 79 22 194 0 115 -3 144 -22
194 -66 174 -197 305 -369 368 -45 17 -86 22 -179 25 -106 3 -129 0 -196 -22z"/>
<path d="M753 2886 c-193 -63 -292 -281 -209 -463 33 -73 103 -144 174 -176
36 -16 67 -21 132 -22 77 0 92 3 152 33 73 36 124 87 160 161 33 66 33 216 0
282 -58 118 -165 189 -295 195 -43 2 -89 -2 -114 -10z"/>
<path d="M4173 2886 c-109 -35 -195 -118 -228 -216 -24 -71 -18 -189 13 -251
36 -74 87 -125 160 -161 60 -30 75 -33 152 -33 103 1 156 22 228 89 143 134
143 358 0 492 -27 25 -69 54 -94 66 -59 25 -174 33 -231 14z"/>
<path d="M970 2060 c-14 -4 -46 -8 -72 -9 -27 -1 -48 -6 -48 -11 0 -26 76
-214 121 -299 177 -334 436 -593 770 -770 83 -43 273 -121 297 -121 5 0 12 28
15 63 4 34 8 70 9 80 2 14 -18 26 -94 56 -416 164 -756 505 -919 920 -21 53
-41 96 -46 97 -4 1 -19 -2 -33 -6z"/>
<path d="M4104 2054 c-167 -470 -507 -829 -952 -1005 -76 -30 -96 -42 -94 -56
1 -10 5 -46 9 -80 3 -35 10 -63 15 -63 24 0 214 78 297 121 334 177 593 436
770 770 43 83 121 273 121 297 0 5 -28 12 -62 15 -35 3 -71 8 -80 12 -12 5
-20 1 -24 -11z"/>
<path d="M2443 1172 c-144 -58 -233 -197 -221 -347 7 -79 35 -142 92 -203 134
-143 358 -143 492 0 67 72 88 125 89 228 0 77 -3 92 -33 152 -61 124 -166 189
-305 187 -43 0 -89 -7 -114 -17z"/>
</g>
</svg>
